<svg width="16" height="16" viewBox="0 0 16 16" fill="none" xmlns="http://www.w3.org/2000/svg">
<path d="M9.33843 7.60644L15.4024 1.54283C15.5329 1.41215 15.5329 1.2004 15.4024 1.06972L14.5375 0.204416C14.4748 0.141841 14.3895 0.106445 14.3008 0.106445C14.212 0.106445 14.1268 0.141841 14.0641 0.204416L8.00033 6.26819L1.93656 0.204416C1.81093 0.0787922 1.5886 0.0789502 1.46329 0.204416L0.598621 1.06972C0.46794 1.2004 0.46794 1.41215 0.598621 1.54283L6.6624 7.60644L0.598621 13.6701C0.46794 13.8007 0.46794 14.0125 0.598621 14.1432L1.46345 15.0085C1.52619 15.071 1.61136 15.1064 1.70016 15.1064C1.78897 15.1064 1.87398 15.071 1.93672 15.0085L8.00049 8.9447L14.0643 15.0085C14.127 15.071 14.2123 15.1064 14.301 15.1064C14.3896 15.1064 14.475 15.071 14.5377 15.0085L15.4025 14.1432C15.533 14.0125 15.533 13.8007 15.4025 13.6701L9.33843 7.60644Z" fill="black"/>
</svg>
